<mxfile host="app.diagrams.net" modified="2023-12-23T13:50:45.839Z" agent="Mozilla/5.0 (Windows NT 10.0; Win64; x64) AppleWebKit/537.36 (KHTML, like Gecko) Chrome/120.0.0.0 Safari/537.36" etag="Smpe1t13kCg1dUl3z5t0" version="22.1.11" type="google">
  <diagram name="第1頁" id="BS_OLCJtyqOoVPxwPoEa">
    <mxGraphModel grid="1" page="1" gridSize="10" guides="1" tooltips="1" connect="1" arrows="1" fold="1" pageScale="1" pageWidth="827" pageHeight="1169" math="0" shadow="0">
      <root>
        <mxCell id="0" />
        <mxCell id="1" parent="0" />
        <mxCell id="E5ft5L9lqHhWROiEovC--4" value="&lt;font style=&quot;font-size: 32px;&quot;&gt;開始&lt;/font&gt;" style="rounded=1;whiteSpace=wrap;html=1;" vertex="1" parent="1">
          <mxGeometry x="60" y="10" width="120" height="60" as="geometry" />
        </mxCell>
        <mxCell id="E5ft5L9lqHhWROiEovC--6" value="&lt;font style=&quot;font-size: 26px;&quot;&gt;自動生成編號&lt;/font&gt;" style="html=1;whiteSpace=wrap;" vertex="1" parent="1">
          <mxGeometry x="20" y="90" width="200" height="30" as="geometry" />
        </mxCell>
        <mxCell id="E5ft5L9lqHhWROiEovC--7" value="" style="endArrow=block;endFill=1;html=1;edgeStyle=orthogonalEdgeStyle;align=left;verticalAlign=top;rounded=0;exitX=0.5;exitY=1;exitDx=0;exitDy=0;entryX=0.5;entryY=0;entryDx=0;entryDy=0;" edge="1" parent="1" source="E5ft5L9lqHhWROiEovC--4" target="E5ft5L9lqHhWROiEovC--6">
          <mxGeometry x="-1" relative="1" as="geometry">
            <mxPoint x="50" y="230" as="sourcePoint" />
            <mxPoint x="120" y="158" as="targetPoint" />
            <Array as="points" />
          </mxGeometry>
        </mxCell>
        <mxCell id="E5ft5L9lqHhWROiEovC--11" value="輸入數據" style="shape=parallelogram;perimeter=parallelogramPerimeter;whiteSpace=wrap;html=1;fixedSize=1;" vertex="1" parent="1">
          <mxGeometry x="60" y="140" width="120" height="40" as="geometry" />
        </mxCell>
        <mxCell id="E5ft5L9lqHhWROiEovC--12" value="是否合法" style="rhombus;whiteSpace=wrap;html=1;" vertex="1" parent="1">
          <mxGeometry x="55" y="210" width="130" height="80" as="geometry" />
        </mxCell>
        <mxCell id="E5ft5L9lqHhWROiEovC--13" value="寫入數據庫" style="rounded=0;whiteSpace=wrap;html=1;" vertex="1" parent="1">
          <mxGeometry x="60" y="330" width="120" height="40" as="geometry" />
        </mxCell>
        <mxCell id="E5ft5L9lqHhWROiEovC--14" value="結束" style="rounded=1;whiteSpace=wrap;html=1;" vertex="1" parent="1">
          <mxGeometry x="75" y="410" width="90" height="40" as="geometry" />
        </mxCell>
        <mxCell id="E5ft5L9lqHhWROiEovC--15" value="" style="endArrow=block;endFill=1;html=1;edgeStyle=orthogonalEdgeStyle;align=left;verticalAlign=top;rounded=0;entryX=0.5;entryY=0;entryDx=0;entryDy=0;exitX=0.5;exitY=1;exitDx=0;exitDy=0;" edge="1" parent="1" source="E5ft5L9lqHhWROiEovC--6" target="E5ft5L9lqHhWROiEovC--11">
          <mxGeometry x="-1" relative="1" as="geometry">
            <mxPoint x="120" y="160" as="sourcePoint" />
            <mxPoint x="119.75999999999999" y="200" as="targetPoint" />
            <Array as="points" />
          </mxGeometry>
        </mxCell>
        <mxCell id="E5ft5L9lqHhWROiEovC--16" value="" style="endArrow=block;endFill=1;html=1;edgeStyle=orthogonalEdgeStyle;align=left;verticalAlign=top;rounded=0;exitX=0.5;exitY=1;exitDx=0;exitDy=0;entryX=0.5;entryY=0;entryDx=0;entryDy=0;" edge="1" parent="1" source="E5ft5L9lqHhWROiEovC--11" target="E5ft5L9lqHhWROiEovC--12">
          <mxGeometry x="-1" relative="1" as="geometry">
            <mxPoint x="140" y="40" as="sourcePoint" />
            <mxPoint x="140" y="80" as="targetPoint" />
            <Array as="points" />
          </mxGeometry>
        </mxCell>
        <mxCell id="E5ft5L9lqHhWROiEovC--17" value="否" style="html=1;verticalAlign=bottom;endArrow=block;curved=0;rounded=0;exitX=1;exitY=0.5;exitDx=0;exitDy=0;" edge="1" parent="1" source="E5ft5L9lqHhWROiEovC--12" target="E5ft5L9lqHhWROiEovC--11">
          <mxGeometry x="-0.098" width="80" relative="1" as="geometry">
            <mxPoint x="190" y="320" as="sourcePoint" />
            <mxPoint x="200" y="240" as="targetPoint" />
            <Array as="points">
              <mxPoint x="260" y="250" />
              <mxPoint x="260" y="160" />
            </Array>
            <mxPoint as="offset" />
          </mxGeometry>
        </mxCell>
        <mxCell id="E5ft5L9lqHhWROiEovC--18" value="" style="endArrow=block;endFill=1;html=1;edgeStyle=orthogonalEdgeStyle;align=left;verticalAlign=top;rounded=0;exitX=0.5;exitY=1;exitDx=0;exitDy=0;entryX=0.5;entryY=0;entryDx=0;entryDy=0;" edge="1" parent="1" source="E5ft5L9lqHhWROiEovC--12" target="E5ft5L9lqHhWROiEovC--13">
          <mxGeometry x="-1" relative="1" as="geometry">
            <mxPoint x="200" y="310" as="sourcePoint" />
            <mxPoint x="360" y="310" as="targetPoint" />
          </mxGeometry>
        </mxCell>
        <mxCell id="E5ft5L9lqHhWROiEovC--20" value="" style="endArrow=block;endFill=1;html=1;edgeStyle=orthogonalEdgeStyle;align=left;verticalAlign=top;rounded=0;exitX=0.5;exitY=1;exitDx=0;exitDy=0;entryX=0.5;entryY=0;entryDx=0;entryDy=0;" edge="1" parent="1" source="E5ft5L9lqHhWROiEovC--13" target="E5ft5L9lqHhWROiEovC--14">
          <mxGeometry x="-1" relative="1" as="geometry">
            <mxPoint x="-120" y="370" as="sourcePoint" />
            <mxPoint x="40" y="370" as="targetPoint" />
            <mxPoint as="offset" />
          </mxGeometry>
        </mxCell>
        <mxCell id="E5ft5L9lqHhWROiEovC--22" value="&lt;font style=&quot;font-size: 32px;&quot;&gt;開始&lt;/font&gt;" style="rounded=1;whiteSpace=wrap;html=1;" vertex="1" parent="1">
          <mxGeometry x="600" y="10" width="120" height="60" as="geometry" />
        </mxCell>
        <mxCell id="E5ft5L9lqHhWROiEovC--23" value="&lt;font style=&quot;font-size: 23px;&quot;&gt;選擇需要修改的記錄&lt;/font&gt;" style="html=1;whiteSpace=wrap;" vertex="1" parent="1">
          <mxGeometry x="560" y="90" width="210" height="40" as="geometry" />
        </mxCell>
        <mxCell id="E5ft5L9lqHhWROiEovC--24" value="" style="endArrow=block;endFill=1;html=1;edgeStyle=orthogonalEdgeStyle;align=left;verticalAlign=top;rounded=0;exitX=0.5;exitY=1;exitDx=0;exitDy=0;entryX=0.476;entryY=0.005;entryDx=0;entryDy=0;entryPerimeter=0;" edge="1" parent="1" source="E5ft5L9lqHhWROiEovC--22" target="E5ft5L9lqHhWROiEovC--23">
          <mxGeometry x="-1" relative="1" as="geometry">
            <mxPoint x="590" y="230" as="sourcePoint" />
            <mxPoint x="670" y="80" as="targetPoint" />
            <Array as="points" />
          </mxGeometry>
        </mxCell>
        <mxCell id="E5ft5L9lqHhWROiEovC--25" value="輸入數據" style="shape=parallelogram;perimeter=parallelogramPerimeter;whiteSpace=wrap;html=1;fixedSize=1;" vertex="1" parent="1">
          <mxGeometry x="595" y="160" width="120" height="40" as="geometry" />
        </mxCell>
        <mxCell id="E5ft5L9lqHhWROiEovC--26" value="是否合法" style="rhombus;whiteSpace=wrap;html=1;" vertex="1" parent="1">
          <mxGeometry x="590" y="230" width="130" height="80" as="geometry" />
        </mxCell>
        <mxCell id="E5ft5L9lqHhWROiEovC--27" value="寫入數據庫" style="rounded=0;whiteSpace=wrap;html=1;" vertex="1" parent="1">
          <mxGeometry x="595" y="350" width="120" height="40" as="geometry" />
        </mxCell>
        <mxCell id="E5ft5L9lqHhWROiEovC--28" value="結束" style="rounded=1;whiteSpace=wrap;html=1;" vertex="1" parent="1">
          <mxGeometry x="610" y="410" width="90" height="40" as="geometry" />
        </mxCell>
        <mxCell id="E5ft5L9lqHhWROiEovC--29" value="" style="endArrow=block;endFill=1;html=1;edgeStyle=orthogonalEdgeStyle;align=left;verticalAlign=top;rounded=0;entryX=0.583;entryY=0.011;entryDx=0;entryDy=0;exitX=0.5;exitY=1;exitDx=0;exitDy=0;entryPerimeter=0;" edge="1" parent="1">
          <mxGeometry x="-1" relative="1" as="geometry">
            <mxPoint x="659.97" y="130" as="sourcePoint" />
            <mxPoint x="659.9300000000001" y="160.44" as="targetPoint" />
            <Array as="points">
              <mxPoint x="660" y="150" />
            </Array>
          </mxGeometry>
        </mxCell>
        <mxCell id="E5ft5L9lqHhWROiEovC--30" value="" style="endArrow=block;endFill=1;html=1;edgeStyle=orthogonalEdgeStyle;align=left;verticalAlign=top;rounded=0;exitX=0.5;exitY=1;exitDx=0;exitDy=0;entryX=0.5;entryY=0;entryDx=0;entryDy=0;" edge="1" parent="1" source="E5ft5L9lqHhWROiEovC--25" target="E5ft5L9lqHhWROiEovC--26">
          <mxGeometry x="-1" relative="1" as="geometry">
            <mxPoint x="675" y="60" as="sourcePoint" />
            <mxPoint x="675" y="100" as="targetPoint" />
            <Array as="points" />
          </mxGeometry>
        </mxCell>
        <mxCell id="E5ft5L9lqHhWROiEovC--31" value="否" style="html=1;verticalAlign=bottom;endArrow=block;curved=0;rounded=0;exitX=1;exitY=0.5;exitDx=0;exitDy=0;" edge="1" parent="1" source="E5ft5L9lqHhWROiEovC--26" target="E5ft5L9lqHhWROiEovC--25">
          <mxGeometry x="-0.098" width="80" relative="1" as="geometry">
            <mxPoint x="725" y="340" as="sourcePoint" />
            <mxPoint x="735" y="260" as="targetPoint" />
            <Array as="points">
              <mxPoint x="750" y="270" />
              <mxPoint x="750" y="230" />
              <mxPoint x="750" y="180" />
            </Array>
            <mxPoint as="offset" />
          </mxGeometry>
        </mxCell>
        <mxCell id="E5ft5L9lqHhWROiEovC--33" value="" style="endArrow=block;endFill=1;html=1;edgeStyle=orthogonalEdgeStyle;align=left;verticalAlign=top;rounded=0;exitX=0.5;exitY=1;exitDx=0;exitDy=0;entryX=0.5;entryY=0;entryDx=0;entryDy=0;" edge="1" parent="1" source="E5ft5L9lqHhWROiEovC--27" target="E5ft5L9lqHhWROiEovC--28">
          <mxGeometry x="-1" relative="1" as="geometry">
            <mxPoint x="415" y="390" as="sourcePoint" />
            <mxPoint x="575" y="390" as="targetPoint" />
            <mxPoint as="offset" />
          </mxGeometry>
        </mxCell>
        <mxCell id="E5ft5L9lqHhWROiEovC--34" value="是" style="html=1;verticalAlign=bottom;endArrow=block;curved=0;rounded=0;exitX=0.5;exitY=1;exitDx=0;exitDy=0;entryX=0.5;entryY=0;entryDx=0;entryDy=0;" edge="1" parent="1" source="E5ft5L9lqHhWROiEovC--26" target="E5ft5L9lqHhWROiEovC--27">
          <mxGeometry x="-0.098" width="80" relative="1" as="geometry">
            <mxPoint x="730" y="280" as="sourcePoint" />
            <mxPoint x="715" y="190" as="targetPoint" />
            <Array as="points" />
            <mxPoint as="offset" />
          </mxGeometry>
        </mxCell>
        <mxCell id="E5ft5L9lqHhWROiEovC--36" value="&lt;font style=&quot;font-size: 32px;&quot;&gt;開始&lt;/font&gt;" style="rounded=1;whiteSpace=wrap;html=1;" vertex="1" parent="1">
          <mxGeometry x="75" y="525" width="120" height="60" as="geometry" />
        </mxCell>
        <mxCell id="E5ft5L9lqHhWROiEovC--37" value="&lt;font style=&quot;font-size: 23px;&quot;&gt;選擇需要刪除的記錄&lt;/font&gt;" style="html=1;whiteSpace=wrap;" vertex="1" parent="1">
          <mxGeometry x="30" y="600" width="210" height="40" as="geometry" />
        </mxCell>
        <mxCell id="E5ft5L9lqHhWROiEovC--38" value="" style="endArrow=block;endFill=1;html=1;edgeStyle=orthogonalEdgeStyle;align=left;verticalAlign=top;rounded=0;exitX=0.5;exitY=1;exitDx=0;exitDy=0;entryX=0.5;entryY=0;entryDx=0;entryDy=0;" edge="1" parent="1" source="E5ft5L9lqHhWROiEovC--36" target="E5ft5L9lqHhWROiEovC--37">
          <mxGeometry x="-1" relative="1" as="geometry">
            <mxPoint x="60" y="740" as="sourcePoint" />
            <mxPoint x="130" y="668" as="targetPoint" />
            <Array as="points" />
          </mxGeometry>
        </mxCell>
        <mxCell id="E5ft5L9lqHhWROiEovC--39" value="輸入數據" style="shape=parallelogram;perimeter=parallelogramPerimeter;whiteSpace=wrap;html=1;fixedSize=1;" vertex="1" parent="1">
          <mxGeometry x="65" y="670" width="120" height="40" as="geometry" />
        </mxCell>
        <mxCell id="E5ft5L9lqHhWROiEovC--40" value="是否合法" style="rhombus;whiteSpace=wrap;html=1;" vertex="1" parent="1">
          <mxGeometry x="60" y="740" width="130" height="80" as="geometry" />
        </mxCell>
        <mxCell id="E5ft5L9lqHhWROiEovC--41" value="寫入數據庫" style="rounded=0;whiteSpace=wrap;html=1;" vertex="1" parent="1">
          <mxGeometry x="65" y="860" width="120" height="40" as="geometry" />
        </mxCell>
        <mxCell id="E5ft5L9lqHhWROiEovC--42" value="結束" style="rounded=1;whiteSpace=wrap;html=1;" vertex="1" parent="1">
          <mxGeometry x="80" y="920" width="90" height="40" as="geometry" />
        </mxCell>
        <mxCell id="E5ft5L9lqHhWROiEovC--43" value="" style="endArrow=block;endFill=1;html=1;edgeStyle=orthogonalEdgeStyle;align=left;verticalAlign=top;rounded=0;entryX=0.583;entryY=0.011;entryDx=0;entryDy=0;exitX=0.5;exitY=1;exitDx=0;exitDy=0;entryPerimeter=0;" edge="1" parent="1">
          <mxGeometry x="-1" relative="1" as="geometry">
            <mxPoint x="124.87" y="640" as="sourcePoint" />
            <mxPoint x="124.83000000000004" y="670.44" as="targetPoint" />
            <Array as="points">
              <mxPoint x="125" y="660" />
              <mxPoint x="125" y="660" />
            </Array>
          </mxGeometry>
        </mxCell>
        <mxCell id="E5ft5L9lqHhWROiEovC--44" value="" style="endArrow=block;endFill=1;html=1;edgeStyle=orthogonalEdgeStyle;align=left;verticalAlign=top;rounded=0;exitX=0.5;exitY=1;exitDx=0;exitDy=0;entryX=0.5;entryY=0;entryDx=0;entryDy=0;" edge="1" parent="1" source="E5ft5L9lqHhWROiEovC--39" target="E5ft5L9lqHhWROiEovC--40">
          <mxGeometry x="-1" relative="1" as="geometry">
            <mxPoint x="145" y="570" as="sourcePoint" />
            <mxPoint x="145" y="610" as="targetPoint" />
            <Array as="points" />
          </mxGeometry>
        </mxCell>
        <mxCell id="E5ft5L9lqHhWROiEovC--45" value="否" style="html=1;verticalAlign=bottom;endArrow=block;curved=0;rounded=0;exitX=1;exitY=0.5;exitDx=0;exitDy=0;" edge="1" parent="1" source="E5ft5L9lqHhWROiEovC--40" target="E5ft5L9lqHhWROiEovC--39">
          <mxGeometry x="-0.098" width="80" relative="1" as="geometry">
            <mxPoint x="195" y="850" as="sourcePoint" />
            <mxPoint x="205" y="770" as="targetPoint" />
            <Array as="points">
              <mxPoint x="220" y="780" />
              <mxPoint x="220" y="740" />
              <mxPoint x="220" y="690" />
            </Array>
            <mxPoint as="offset" />
          </mxGeometry>
        </mxCell>
        <mxCell id="E5ft5L9lqHhWROiEovC--46" value="" style="endArrow=block;endFill=1;html=1;edgeStyle=orthogonalEdgeStyle;align=left;verticalAlign=top;rounded=0;exitX=0.5;exitY=1;exitDx=0;exitDy=0;entryX=0.5;entryY=0;entryDx=0;entryDy=0;" edge="1" parent="1" source="E5ft5L9lqHhWROiEovC--41" target="E5ft5L9lqHhWROiEovC--42">
          <mxGeometry x="-1" relative="1" as="geometry">
            <mxPoint x="-115" y="900" as="sourcePoint" />
            <mxPoint x="45" y="900" as="targetPoint" />
            <mxPoint as="offset" />
          </mxGeometry>
        </mxCell>
        <mxCell id="E5ft5L9lqHhWROiEovC--47" value="是" style="html=1;verticalAlign=bottom;endArrow=block;curved=0;rounded=0;exitX=0.5;exitY=1;exitDx=0;exitDy=0;entryX=0.5;entryY=0;entryDx=0;entryDy=0;" edge="1" parent="1" source="E5ft5L9lqHhWROiEovC--40" target="E5ft5L9lqHhWROiEovC--41">
          <mxGeometry x="-0.098" width="80" relative="1" as="geometry">
            <mxPoint x="200" y="790" as="sourcePoint" />
            <mxPoint x="185" y="700" as="targetPoint" />
            <Array as="points" />
            <mxPoint as="offset" />
          </mxGeometry>
        </mxCell>
      </root>
    </mxGraphModel>
  </diagram>
</mxfile>
